<?xml version="1.0" encoding="UTF-8" standalone="no"?>
<svg width="82px" height="24px" viewBox="0 0 82 24" version="1.1" xmlns="http://www.w3.org/2000/svg" xmlns:xlink="http://www.w3.org/1999/xlink">
    <!-- Generator: Sketch 49.1 (51147) - http://www.bohemiancoding.com/sketch -->
    <title>respologo</title>
    <desc>Created with Sketch.</desc>
    <defs></defs>
    <g id="Page-1" stroke="none" stroke-width="1" fill="none" fill-rule="evenodd">
        <g id="Desktop-HD" transform="translate(-1167.000000, -2080.000000)" fill="#2DA5B2">
            <g id="respologo" transform="translate(1167.000000, 2080.000000)">
                <path d="M11.5832168,22.6285714 C11.5832168,22.6285714 10.7230769,23.9428571 9.17482517,23.9428571 C7.7986014,23.9428571 6.59440559,23.0285714 6.30769231,21.7142857 L0.630769231,4.45714286 C0.573426573,4.28571429 0.516083916,4.11428571 0.458741259,3.88571429 L0.458741259,3.88571429 L0.458741259,3.88571429 C0.458741259,3.65714286 0.401398601,3.48571429 0.401398601,3.25714286 C0.401398601,1.65714286 1.72027972,0.342857143 3.32587413,0.342857143 C3.55524476,0.342857143 3.78461538,0.342857143 4.01398601,0.4 L4.01398601,0.4 L21.2741259,3.25714286 C21.7328671,3.31428571 21.7328671,3.31428571 21.9622378,3.37142857 L21.9622378,3.37142857 L21.9622378,3.37142857 C23.1664336,3.71428571 24.0839161,4.85714286 24.0839161,6.17142857 C24.0839161,6.8 23.9118881,7.37142857 23.5678322,7.82857143 L23.5678322,7.82857143 L23.5678322,7.82857143 L11.5832168,22.6285714 Z" id="Shape"></path>
                <g id="Group" transform="translate(33.258741, 7.428571)">
                    <path d="M10.2643357,6.05714286 C10.2643357,7.6 9.69090909,8.91428571 8.54405594,10 L6.25034965,10 C7.68391608,8.51428571 8.37202797,7.14285714 8.37202797,6 L8.37202797,4.91428571 C8.37202797,4.11428571 8.02797203,3.71428571 7.3972028,3.71428571 C6.70909091,3.71428571 6.36503497,4.05714286 6.36503497,4.68571429 L6.36503497,7.2 L4.47272727,7.2 L4.47272727,4.68571429 C4.47272727,4 4.12867133,3.71428571 3.38321678,3.71428571 C2.75244755,3.71428571 2.40839161,4.11428571 2.40839161,4.91428571 L2.40839161,6.05714286 C2.40839161,7.14285714 3.15384615,8.45714286 4.58741259,10 L2.29370629,10 C1.08951049,8.97142857 0.516083916,7.65714286 0.516083916,6.05714286 L0.516083916,5.42857143 C0.516083916,3.88571429 1.08951049,2.57142857 2.17902098,1.6 C3.26853147,0.628571429 5.27552448,0.171428571 8.31468531,0.171428571 L8.31468531,1.6 C5.5048951,1.6 3.78461538,1.94285714 3.0965035,2.74285714 C4.24335664,2.45714286 5.04615385,2.62857143 5.5048951,3.31428571 C6.02097902,2.74285714 6.65174825,2.45714286 7.33986014,2.45714286 C9.34685315,2.45714286 10.379021,3.48571429 10.379021,5.54285714 L10.379021,6.05714286 L10.2643357,6.05714286 L10.2643357,6.05714286 Z" id="Shape"></path>
                    <path d="M18.8657343,7.25714286 C18.8657343,9.2 17.8335664,10.1714286 15.7692308,10.1714286 C13.7622378,10.1714286 12.7300699,9.2 12.7300699,7.2 L12.9594406,5.6 L15.0237762,5.6 L14.6797203,7.54285714 C14.6797203,8.34285714 15.0811189,8.8 15.8265734,8.8 C16.6867133,8.8 17.0881119,8.4 17.0881119,7.54285714 L17.0881119,2.28571429 C17.0881119,1.77142857 16.7440559,1.54285714 15.9986014,1.54285714 C15.4251748,1.54285714 15.1384615,1.88571429 15.1384615,2.51428571 L15.3104895,4 L13.3608392,4 L13.2461538,2.51428571 C13.2461538,0.914285714 14.1636364,0.114285714 16.0559441,0.114285714 C17.9482517,0.114285714 18.8657343,0.857142857 18.8657343,2.4 L18.8657343,7.25714286 Z" id="Shape"></path>
                    <path d="M27.7538462,7.14285714 C27.7538462,9.14285714 26.7216783,10.1714286 24.6573427,10.1714286 C22.6503497,10.1714286 21.6181818,9.02857143 21.6181818,6.68571429 L21.6181818,0.228571429 L23.4531469,0.228571429 L23.4531469,7.2 C23.4531469,8.22857143 23.8545455,8.74285714 24.6573427,8.74285714 C25.5174825,8.74285714 25.9188811,8.34285714 25.9188811,7.54285714 L25.9188811,6.85714286 C25.9188811,6.22857143 25.6895105,5.71428571 25.2307692,5.25714286 C24.772028,4.8 24.5426573,4.17142857 24.5426573,3.48571429 L24.8293706,2.05714286 L26.8363636,2.05714286 L26.3202797,3.6 C26.3202797,4.11428571 26.5496503,4.57142857 27.0657343,4.97142857 C27.5818182,5.37142857 27.8111888,6.05714286 27.8111888,6.97142857 L27.8111888,7.14285714 L27.7538462,7.14285714 Z" id="Shape"></path>
                    <path d="M36.4125874,7.37142857 C36.4125874,9.25714286 35.4377622,10.1714286 33.4307692,10.1714286 C31.3090909,10.1714286 30.2195804,9.2 30.2195804,7.25714286 L30.2769231,6.05714286 L32.1692308,6.05714286 L32.0545455,7.31428571 C32.0545455,8.28571429 32.4559441,8.8 33.3160839,8.8 C34.0615385,8.8 34.4629371,8.28571429 34.4629371,7.31428571 L34.4629371,6.97142857 C34.4629371,6.28571429 34.2909091,5.94285714 33.8895105,5.94285714 L32.8573427,5.94285714 L32.8573427,4.4 L33.3160839,4.4 C34.0041958,4.4 34.3482517,4.05714286 34.3482517,3.37142857 C34.3482517,2.91428571 33.9468531,2.51428571 33.2013986,2.22857143 C32.4559441,1.94285714 32.0545455,1.31428571 32.0545455,0.285714286 L34.1188811,0.285714286 C34.1188811,0.914285714 34.4629371,1.48571429 35.151049,1.94285714 C35.8391608,2.45714286 36.1832168,2.91428571 36.1832168,3.31428571 C36.1832168,4.05714286 35.7244755,4.68571429 34.8643357,5.08571429 C35.8391608,5.37142857 36.2979021,6.11428571 36.2979021,7.2 L36.2979021,7.37142857 L36.4125874,7.37142857 Z" id="Shape"></path>
                    <path d="M48.2825175,5.88571429 C48.2825175,7.42857143 47.7090909,8.8 46.6195804,10 L44.4405594,10 C45.7594406,8.45714286 46.3902098,7.08571429 46.3902098,5.88571429 L46.3902098,2.91428571 C46.3902098,2 46.0461538,1.54285714 45.358042,1.54285714 C44.841958,1.54285714 44.5552448,1.82857143 44.5552448,2.45714286 L44.5552448,6.68571429 L42.6629371,6.68571429 L42.6629371,2.45714286 C42.6629371,1.88571429 42.3188811,1.6 41.6307692,1.6 C41.0573427,1.6 40.7706294,2.05714286 40.7706294,2.97142857 L40.7706294,5.94285714 C40.7706294,7.14285714 41.3440559,8.51428571 42.4909091,10.0571429 L40.3692308,10.0571429 C39.3370629,8.85714286 38.8783217,7.48571429 38.8783217,5.94285714 L38.8783217,3.42857143 C38.8783217,1.25714286 39.8531469,0.171428571 41.7454545,0.171428571 C42.5482517,0.171428571 43.1216783,0.457142857 43.6377622,1.02857143 C44.0965035,0.457142857 44.6699301,0.171428571 45.358042,0.171428571 C47.3076923,0.171428571 48.2825175,1.25714286 48.2825175,3.42857143 L48.2825175,5.88571429 L48.2825175,5.88571429 Z" id="Shape"></path>
                </g>
                <path d="M25.5748252,23.8857143 L25.5748252,23.8857143 L25.5748252,23.8857143 C25.8041958,23.8857143 26.0909091,23.8285714 26.3202797,23.7142857 C26.8363636,23.3714286 27.0657343,22.8 26.8937063,22.2285714 L26.8937063,22.2285714 L26.8937063,22.2285714 C26.8363636,22.1142857 26.8363636,22.1142857 26.779021,21.9428571 L23.7972028,14.8 L23.7972028,14.8 C23.7398601,14.6857143 23.7398601,14.6285714 23.6825175,14.5142857 C23.2811189,13.8857143 22.4783217,13.7142857 21.9048951,14.1142857 C21.8475524,14.1714286 21.7328671,14.2285714 21.6755245,14.2857143 L21.6755245,14.2857143 L21.6755245,14.2857143 C21.6181818,14.3428571 21.5608392,14.4 21.5034965,14.5142857 L18.234965,18.3428571 L16.2853147,20.6285714 C15.8839161,21.0285714 15.7692308,21.7142857 16.1132867,22.2285714 C16.3426573,22.6285714 16.7440559,22.8 17.1454545,22.8571429 L17.1454545,22.8571429" id="Shape"></path>
            </g>
        </g>
    </g>
</svg>